# xmcd
#
# Track frame offsets:
#	150
#	25803
#	47898
#	76520
#	97275
#	117283
#	145188
#	166555
#	189020
#	209475
#
# Disc length: 3110 seconds
#
# Revision: 3
# Processed by: cddbd v1.5.2PL0 Copyright (c) Steve Scherf et al.
# Submitted via: EZCDAudioConverter 8.0.2.1
#
DISCID=790c240a
DTITLE=Elvis Phương. Ngọc Lan, Tuấn Anh - Ngủ Đi Em
DYEAR=1989
DGENRE=blues
TTITLE0=Ngọc Lan - Giết người trong mọng
TTITLE1=Tuấn Anh - Ngủ Đi Em
TTITLE2=Ngọc Lan - Một ngày như mọi ngày
TTITLE3=Elvis Phương - Em là tất cả
TTITLE4=Ngọc Lan - Một giấc mơ
TTITLE5=Tuấn Anh - Hạ trắng
TTITLE6=Ngọc Lan - Diễm xưa
TTITLE7=Elvis Phương - Xin hãy quên tôi
TTITLE8=Ngọc Lan - Không tên cuối cùng
TTITLE9=Tuấn Anh - Thương một người
EXTD=
EXTT0=
EXTT1=
EXTT2=
EXTT3=
EXTT4=
EXTT5=
EXTT6=
EXTT7=
EXTT8=
EXTT9=
PLAYORDER=
